<svg width="179" height="180" viewBox="0 0 179 180" fill="none" xmlns="http://www.w3.org/2000/svg">
<path d="M72.6968 41.6081H107.05V74.1709H72.6968V41.6081Z" fill="#3B6FB8"/>
<path fill-rule="evenodd" clip-rule="evenodd" d="M108.705 12.4303C115.348 12.431 120.734 17.6687 120.734 24.1296V37.7977C125.023 39.1759 128.119 43.1005 128.119 47.7337C128.119 52.6093 124.688 56.6926 120.049 57.8562C117.002 72.0014 104.105 82.6251 88.6555 82.6257C73.2056 82.6252 60.3093 72.0016 57.2622 57.8562C52.6229 56.6924 49.1919 52.6091 49.1917 47.7337C49.1917 43.1008 52.2884 39.1761 56.577 37.7977V24.1296C56.577 17.6686 61.9632 12.4309 68.6064 12.4303H108.705ZM101.797 61.5046C100.876 60.9073 99.631 61.1494 99.0168 62.0454C95.3976 67.3251 91.1591 68.553 87.5043 68.0245C83.654 67.4674 80.1329 64.9117 78.3295 62.0949C77.7441 61.1811 76.5047 60.9012 75.5649 61.4703C74.6253 62.0397 74.3375 63.245 74.9227 64.159C77.2804 67.8414 81.7795 71.1355 86.913 71.8785C92.2422 72.6496 97.9529 70.6276 102.353 64.2085C102.967 63.3125 102.718 62.102 101.797 61.5046ZM78.631 43.6283C77.5237 43.6283 76.6261 45.3742 76.6261 47.528C76.6261 49.6818 77.5237 51.4278 78.631 51.4278C79.7383 51.4278 80.6359 49.6818 80.6359 47.528C80.6359 45.3742 79.7383 43.6283 78.631 43.6283ZM98.6801 43.6283C97.5728 43.6283 96.6751 45.3742 96.6751 47.528C96.6751 49.6818 97.5728 51.4278 98.6801 51.4278C99.7873 51.4278 100.685 49.6818 100.685 47.528C100.685 45.3742 99.7873 43.6283 98.6801 43.6283Z" fill="#CFE9FF"/>
<path d="M64.01 76.776C65.1567 77.9415 66.3893 79.0236 67.6915 80.0231L81.3146 100.052C85.2087 105.777 93.7913 105.777 97.6854 100.052L111.143 80.2566V95.3619C107.75 96.2191 105.241 99.2302 105.241 102.824C105.241 107.085 108.764 110.539 113.111 110.539C117.457 110.539 120.981 107.085 120.981 102.824C120.981 99.2302 118.472 96.2191 115.078 95.3619V76.7911C129.769 80.3644 140.657 93.3801 140.657 108.885C140.657 116.189 134.616 122.111 127.164 122.111H51.8357C44.3843 122.111 38.3432 116.189 38.3432 108.885C38.3435 93.3495 49.2756 80.3191 64.01 76.776Z" fill="#3B6FB8"/>
<path d="M113.111 98.9668C115.284 98.9668 117.046 100.694 117.046 102.824C117.046 104.954 115.284 106.681 113.111 106.681C110.938 106.681 109.176 104.954 109.176 102.824C109.176 100.694 110.938 98.9668 113.111 98.9668Z" fill="#3B6FB8"/>
<path d="M75.5157 84.5735C79.8065 86.3838 84.5318 87.3949 89.5 87.3949C94.4653 87.3949 99.1882 86.3857 103.477 84.5773L94.4112 97.912C92.0748 101.347 86.9252 101.347 84.5888 97.912L75.5157 84.5735Z" fill="#3B6FB8"/>
<path d="M90.7723 0C96.8262 0.000111415 101.733 4.91025 101.734 10.9673H107.176C114.664 10.9678 120.736 17.0425 120.736 24.5352V32.9038H56.424V24.5352C56.4244 17.0422 62.4955 10.9673 69.9846 10.9673H79.8108C79.8111 4.91018 84.7183 0 90.7723 0Z" fill="#3B6FB8"/>
<path d="M85.3485 11.1206C85.3483 10.5267 85.8293 10.0443 86.4229 10.0438L89.9543 10.0408L89.951 6.20011C89.9505 5.60601 90.4316 5.12381 91.0254 5.1233C91.6189 5.12311 92.1012 5.60437 92.1017 6.19828L92.1049 10.039L95.9453 10.0357C96.5387 10.0355 97.0208 10.517 97.0216 11.1107C97.0221 11.7046 96.5407 12.1867 95.9472 12.1875L92.1068 12.1907L92.1098 15.7258C92.1101 16.3196 91.6288 16.8018 91.0354 16.8026C90.4417 16.8031 89.9598 16.3216 89.9591 15.7276L89.9561 12.1926L86.4247 12.1956C85.8309 12.1961 85.349 11.7147 85.3485 11.1206Z" fill="#3B6FB8"/>
<path d="M24.5523 175.24C22.3888 176.827 20.2909 178.022 18.2585 178.825C16.248 179.608 13.9862 180 11.473 180C9.17843 180 7.15699 179.578 5.40872 178.733C3.6823 177.867 2.34924 176.703 1.40954 175.24C0.469848 173.777 0 172.19 0 170.48C0 168.172 0.775796 166.204 2.32739 164.576C3.87898 162.948 6.00968 161.856 8.7195 161.299C9.28769 161.176 10.6972 160.898 12.9481 160.465C15.199 160.032 17.1221 159.641 18.7174 159.29C20.3346 158.919 22.0829 158.476 23.9622 157.961C23.853 155.736 23.3722 154.108 22.5199 153.077C21.6895 152.026 19.9521 151.501 17.3079 151.501C15.0351 151.501 13.3196 151.8 12.1614 152.397C11.025 152.995 10.0416 153.891 9.21121 155.087C8.40263 156.282 7.82351 157.075 7.47386 157.467C7.14606 157.838 6.4249 158.023 5.31037 158.023C4.30512 158.023 3.43098 157.724 2.68797 157.127C1.96681 156.508 1.60622 155.725 1.60622 154.777C1.60622 153.294 2.16349 151.851 3.27801 150.45C4.39253 149.049 6.12988 147.895 8.49004 146.988C10.8502 146.081 13.7895 145.628 17.3079 145.628C21.2415 145.628 24.3338 146.071 26.5847 146.957C28.8356 147.823 30.4199 149.203 31.3378 151.099C32.2775 152.995 32.7473 155.509 32.7473 158.641C32.7473 160.619 32.7364 162.299 32.7145 163.68C32.7145 165.06 32.7036 166.595 32.6818 168.285C32.6818 169.872 32.9549 171.531 33.5013 173.262C34.0694 174.972 34.3535 176.074 34.3535 176.569C34.3535 177.434 33.9165 178.228 33.0423 178.949C32.19 179.65 31.2176 180 30.1249 180C29.2071 180 28.3001 179.598 27.4042 178.795C26.5082 177.97 25.5575 176.785 24.5523 175.24ZM23.9622 163.03C22.651 163.484 20.7389 163.968 18.2257 164.483C15.7344 164.978 14.008 165.349 13.0465 165.596C12.0849 165.823 11.1671 166.286 10.2929 166.987C9.41881 167.667 8.98174 168.625 8.98174 169.862C8.98174 171.139 9.4953 172.231 10.5224 173.138C11.5495 174.024 12.8935 174.467 14.5544 174.467C16.3245 174.467 17.9526 174.107 19.4386 173.385C20.9465 172.643 22.0501 171.696 22.7494 170.542C23.558 169.264 23.9622 167.162 23.9622 164.236V163.03Z" fill="#79C3FF"/>
<path d="M41.5859 174.454V134.893C41.5859 133.067 41.9038 131.686 42.5396 130.75C43.193 129.814 44.0673 129.347 45.1623 129.347C46.2573 129.347 47.1404 129.814 47.8115 130.75C48.4826 131.663 48.8182 133.044 48.8182 134.893V174.454C48.8182 176.302 48.4738 177.695 47.785 178.63C47.1139 179.543 46.2396 180 45.1623 180C44.1026 180 43.2372 179.521 42.5661 178.563C41.9126 177.605 41.5859 176.236 41.5859 174.454Z" fill="#79C3FF"/>
<path d="M89.3452 174.788V173.886C88.1669 175.289 86.9993 176.436 85.8424 177.327C84.7069 178.196 83.4643 178.853 82.1146 179.298C80.7863 179.766 79.3295 180 77.7441 180C75.6445 180 73.6949 179.543 71.8953 178.63C70.1171 177.695 68.5746 176.369 67.2677 174.654C65.9608 172.939 64.9646 170.923 64.2791 168.606C63.6149 166.29 63.2828 163.784 63.2828 161.089C63.2828 155.386 64.6218 150.942 67.2998 147.757C69.9779 144.572 73.5021 142.979 77.8726 142.979C80.4007 142.979 82.5324 143.436 84.2677 144.349C86.0031 145.24 87.6956 146.621 89.3452 148.492V135.027C89.3452 133.156 89.6987 131.741 90.4057 130.783C91.1341 129.826 92.1625 129.347 93.4908 129.347C94.8191 129.347 95.8367 129.792 96.5437 130.683C97.2722 131.552 97.6364 132.844 97.6364 134.559V174.788C97.6364 176.525 97.2507 177.828 96.4795 178.697C95.7082 179.566 94.712 180 93.4908 180C92.2911 180 91.2948 179.555 90.5021 178.664C89.7309 177.75 89.3452 176.458 89.3452 174.788ZM72.0881 161.389C72.0881 163.862 72.4523 165.967 73.1808 167.704C73.9306 169.442 74.9482 170.756 76.2337 171.647C77.5191 172.516 78.9224 172.95 80.4435 172.95C81.9861 172.95 83.3893 172.538 84.6534 171.714C85.9388 170.867 86.9565 169.586 87.7063 167.871C88.4776 166.134 88.8632 163.973 88.8632 161.389C88.8632 158.961 88.4776 156.879 87.7063 155.141C86.9565 153.381 85.9281 152.045 84.6212 151.132C83.3358 150.196 81.9218 149.728 80.3793 149.728C78.7724 149.728 77.337 150.207 76.073 151.165C74.809 152.101 73.8235 153.459 73.1165 155.241C72.4309 157.001 72.0881 159.05 72.0881 161.389Z" fill="#3B6FB8"/>
<path d="M139.222 162.814C139.222 165.333 138.822 167.655 138.021 169.781C137.221 171.908 136.062 173.735 134.545 175.262C133.028 176.79 131.216 177.967 129.109 178.792C127.002 179.597 124.632 180 121.998 180C119.385 180 117.036 179.587 114.95 178.761C112.864 177.936 111.053 176.759 109.514 175.231C107.997 173.683 106.839 171.866 106.038 169.781C105.258 167.676 104.869 165.353 104.869 162.814C104.869 160.254 105.269 157.911 106.07 155.785C106.87 153.659 108.019 151.842 109.514 150.335C111.01 148.828 112.822 147.672 114.95 146.867C117.078 146.041 119.428 145.628 121.998 145.628C124.611 145.628 126.981 146.041 129.109 146.867C131.237 147.693 133.059 148.869 134.576 150.397C136.093 151.924 137.242 153.741 138.021 155.847C138.822 157.952 139.222 160.275 139.222 162.814ZM130.563 162.814C130.563 159.367 129.783 156.683 128.224 154.763C126.686 152.843 124.611 151.883 121.998 151.883C120.312 151.883 118.827 152.317 117.542 153.184C116.257 154.03 115.266 155.289 114.571 156.962C113.876 158.634 113.528 160.585 113.528 162.814C113.528 165.023 113.865 166.953 114.54 168.605C115.235 170.256 116.215 171.526 117.479 172.413C118.764 173.28 120.27 173.714 121.998 173.714C124.611 173.714 126.686 172.754 128.224 170.834C129.783 168.894 130.563 166.22 130.563 162.814Z" fill="#3B6FB8"/>
<path d="M179 169.596C179 170.648 178.674 171.773 178.022 172.971C177.392 174.168 176.414 175.314 175.09 176.408C173.786 177.481 172.136 178.349 170.138 179.009C168.141 179.67 165.891 180 163.39 180C158.07 180 153.918 178.483 150.933 175.448C147.947 172.393 146.455 168.305 146.455 163.186C146.455 159.717 147.138 156.652 148.504 153.989C149.871 151.326 151.847 149.272 154.433 147.827C157.019 146.361 160.11 145.628 163.705 145.628C165.933 145.628 167.973 145.948 169.823 146.588C171.694 147.228 173.271 148.054 174.553 149.065C175.857 150.077 176.845 151.161 177.518 152.317C178.212 153.452 178.558 154.515 178.558 155.506C178.558 156.518 178.17 157.374 177.392 158.076C176.635 158.778 175.71 159.129 174.616 159.129C173.902 159.129 173.302 158.954 172.819 158.603C172.356 158.231 171.831 157.643 171.242 156.838C170.191 155.269 169.087 154.092 167.931 153.308C166.795 152.523 165.345 152.131 163.579 152.131C161.035 152.131 158.985 153.111 157.429 155.073C155.873 157.013 155.095 159.676 155.095 163.062C155.095 164.651 155.295 166.117 155.695 167.459C156.094 168.78 156.672 169.916 157.429 170.865C158.186 171.794 159.101 172.506 160.173 173.002C161.245 173.477 162.422 173.714 163.705 173.714C165.429 173.714 166.901 173.322 168.12 172.537C169.36 171.753 170.454 170.555 171.4 168.945C171.925 167.996 172.493 167.252 173.103 166.716C173.712 166.179 174.459 165.911 175.342 165.911C176.393 165.911 177.266 166.303 177.959 167.087C178.653 167.872 179 168.708 179 169.596Z" fill="#3B6FB8"/>
</svg>
