<svg width="145" height="40" viewBox="0 0 145 40" fill="none" xmlns="http://www.w3.org/2000/svg">
<path d="M20.6466 35.9984C18.8273 37.332 17.0631 38.3366 15.354 39.012C13.6633 39.6702 11.7613 39.9992 9.64796 39.9992C7.71837 39.9992 6.01849 39.6442 4.54832 38.9341C3.09653 38.2067 1.97553 37.2281 1.18532 35.9984C0.395107 34.7688 0 33.4352 0 31.9976C0 30.0579 0.652386 28.4038 1.95716 27.0356C3.26193 25.6674 5.05369 24.7494 7.33245 24.2818C7.81025 24.1779 8.99557 23.9441 10.8884 23.5804C12.7812 23.2167 14.3984 22.8876 15.74 22.5932C17.0999 22.2814 18.57 21.909 20.1504 21.4761C20.0586 19.6056 19.6543 18.2373 18.9376 17.3713C18.2392 16.488 16.7783 16.0464 14.5546 16.0464C12.6434 16.0464 11.2008 16.2975 10.2268 16.7998C9.27123 17.3021 8.44426 18.0555 7.74593 19.06C7.06598 20.0645 6.57899 20.7313 6.28495 21.0604C6.0093 21.3721 5.40286 21.528 4.46563 21.528C3.62028 21.528 2.8852 21.2769 2.26038 20.7746C1.65394 20.255 1.35071 19.5969 1.35071 18.8002C1.35071 17.5532 1.81933 16.3408 2.75656 15.1631C3.69379 13.9854 5.15477 13.0155 7.13949 12.2534C9.12421 11.4914 11.5959 11.1104 14.5546 11.1104C17.8625 11.1104 20.4629 11.4827 22.3557 12.2275C24.2485 12.9549 25.5809 14.1153 26.3527 15.7087C27.1429 17.3021 27.538 19.415 27.538 22.0476C27.538 23.7103 27.5288 25.1218 27.5105 26.2822C27.5105 27.4426 27.5013 28.7329 27.4829 30.1531C27.4829 31.4867 27.7126 32.8809 28.172 34.3358C28.6498 35.7733 28.8887 36.6999 28.8887 37.1155C28.8887 37.843 28.5212 38.5098 27.7861 39.1159C27.0694 39.7048 26.2516 39.9992 25.3328 39.9992C24.5609 39.9992 23.7983 39.6615 23.0448 38.986C22.2914 38.2933 21.492 37.2974 20.6466 35.9984ZM20.1504 25.7366C19.0478 26.1177 17.4398 26.5247 15.3265 26.9577C13.2315 27.3733 11.7797 27.6851 10.9711 27.8929C10.1625 28.0834 9.39068 28.4731 8.65559 29.062C7.92051 29.6335 7.55297 30.4389 7.55297 31.4781C7.55297 32.5519 7.98483 33.4698 8.84855 34.2319C9.71228 34.9766 10.8425 35.349 12.2391 35.349C13.7277 35.349 15.0968 35.0459 16.3464 34.4397C17.6144 33.8162 18.5425 33.0195 19.1305 32.0496C19.8105 30.9758 20.1504 29.2092 20.1504 26.7498V25.7366Z" fill="#163F79"/>
<path d="M33.333 35.6201V4.37995C33.333 2.93756 33.7237 1.84697 34.5052 1.10818C35.3083 0.369393 36.3828 0 37.7286 0C39.0744 0 40.1597 0.369393 40.9846 1.10818C41.8094 1.82938 42.2219 2.91997 42.2219 4.37995V35.6201C42.2219 37.08 41.7986 38.1794 40.952 38.9182C40.1272 39.6394 39.0527 40 37.7286 40C36.4262 40 35.3626 39.6218 34.5377 38.8654C33.7346 38.1091 33.333 37.0273 33.333 35.6201Z" fill="#163F79"/>
<path d="M68.5835 35.8839V35.1715C67.5926 36.2797 66.6108 37.1856 65.6379 37.8892C64.683 38.5752 63.6381 39.0941 62.5031 39.4459C61.3861 39.8153 60.161 40 58.8278 40C57.0623 40 55.4228 39.6394 53.9094 38.9182C52.4141 38.1794 51.117 37.1328 50.018 35.7784C48.919 34.4239 48.0813 32.832 47.5047 31.0026C46.9462 29.1733 46.667 27.1944 46.667 25.066C46.667 20.5629 47.793 17.0536 50.045 14.5383C52.297 12.0229 55.2606 10.7652 58.9359 10.7652C61.0618 10.7652 62.8544 11.1258 64.3137 11.847C65.773 12.5506 67.1963 13.6412 68.5835 15.1187V4.48549C68.5835 3.00792 68.8808 1.89094 69.4753 1.13456C70.0879 0.378188 70.9526 0 72.0696 0C73.1866 0 74.0424 0.351803 74.6369 1.05541C75.2495 1.74142 75.5557 2.76165 75.5557 4.1161V35.8839C75.5557 37.2559 75.2314 38.285 74.5829 38.971C73.9343 39.657 73.0965 40 72.0696 40C71.0607 40 70.223 39.6482 69.5564 38.9446C68.9078 38.2234 68.5835 37.2032 68.5835 35.8839ZM54.0716 25.3034C54.0716 27.2559 54.3779 28.9182 54.9904 30.2902C55.621 31.6623 56.4767 32.7001 57.5577 33.4037C58.6387 34.0897 59.8187 34.4327 61.0978 34.4327C62.395 34.4327 63.5751 34.1073 64.638 33.4565C65.719 32.788 66.5747 31.7766 67.2053 30.4222C67.8539 29.0501 68.1782 27.3439 68.1782 25.3034C68.1782 23.3861 67.8539 21.7414 67.2053 20.3694C66.5747 18.9798 65.71 17.9244 64.611 17.2032C63.53 16.4644 62.341 16.095 61.0438 16.095C59.6926 16.095 58.4855 16.4732 57.4226 17.2296C56.3596 17.9683 55.5309 19.0413 54.9364 20.4485C54.3598 21.8382 54.0716 23.4565 54.0716 25.3034Z" fill="#3B6FB8"/>
<path d="M111.111 25.5548C111.111 27.6716 110.775 29.6235 110.101 31.4107C109.428 33.1978 108.454 34.7333 107.178 36.0173C105.902 37.3012 104.379 38.2902 102.607 38.9842C100.835 39.6609 98.8419 39.9992 96.6272 39.9992C94.4302 39.9992 92.4546 39.6522 90.7006 38.9582C88.9465 38.2642 87.4228 37.2752 86.1294 35.9912C84.8537 34.6899 83.8793 33.1631 83.206 31.4107C82.5504 29.6409 82.2227 27.6889 82.2227 25.5548C82.2227 23.4033 82.5593 21.434 83.2326 19.6469C83.9058 17.8598 84.8715 16.3329 86.1294 15.0663C87.3874 13.7997 88.9111 12.8281 90.7006 12.1514C92.4901 11.4574 94.4656 11.1104 96.6272 11.1104C98.8242 11.1104 100.817 11.4574 102.607 12.1514C104.396 12.8454 105.929 13.8344 107.205 15.1184C108.48 16.4023 109.446 17.9292 110.101 19.6989C110.775 21.4687 111.111 23.4207 111.111 25.5548ZM103.829 25.5548C103.829 22.6572 103.174 20.4016 101.863 18.788C100.569 17.1744 98.8242 16.3676 96.6272 16.3676C95.2097 16.3676 93.9606 16.732 92.8799 17.4607C91.7991 18.1721 90.9663 19.2305 90.3817 20.6359C89.797 22.0413 89.5046 23.6809 89.5046 25.5548C89.5046 27.4113 89.7881 29.0336 90.3551 30.4217C90.9398 31.8097 91.7636 32.8768 92.8267 33.6229C93.9075 34.3516 95.1743 34.716 96.6272 34.716C98.8242 34.716 100.569 33.9091 101.863 32.2955C103.174 30.6646 103.829 28.4177 103.829 25.5548Z" fill="#3B6FB8"/>
<path d="M144.444 31.2545C144.444 32.1394 144.155 33.085 143.577 34.0913C143.017 35.0977 142.149 36.0606 140.973 36.9802C139.816 37.8825 138.351 38.6112 136.578 39.1664C134.805 39.7216 132.809 39.9992 130.588 39.9992C125.866 39.9992 122.181 38.724 119.531 36.1734C116.881 33.6055 115.556 30.1701 115.556 25.8671C115.556 22.9522 116.162 20.3756 117.375 18.1374C118.588 15.8991 120.342 14.1727 122.638 12.9582C124.933 11.7263 127.677 11.1104 130.868 11.1104C132.846 11.1104 134.656 11.3793 136.298 11.9172C137.959 12.455 139.359 13.1491 140.497 13.9992C141.654 14.8494 142.532 15.7603 143.129 16.732C143.745 17.6863 144.053 18.5798 144.053 19.4127C144.053 20.2628 143.707 20.9829 143.017 21.5728C142.345 22.1627 141.524 22.4577 140.553 22.4577C139.919 22.4577 139.387 22.3102 138.958 22.0153C138.547 21.7029 138.081 21.2084 137.558 20.5318C136.625 19.2131 135.645 18.2241 134.619 17.5648C133.611 16.9055 132.323 16.5758 130.756 16.5758C128.498 16.5758 126.678 17.4 125.297 19.0483C123.916 20.6793 123.226 22.9175 123.226 25.763C123.226 27.099 123.403 28.3309 123.758 29.4587C124.112 30.5691 124.625 31.5234 125.297 32.3216C125.969 33.1023 126.781 33.7009 127.733 34.1174C128.684 34.5164 129.729 34.716 130.868 34.716C132.398 34.716 133.704 34.3863 134.787 33.727C135.888 33.0676 136.858 32.0613 137.698 30.7079C138.165 29.9098 138.669 29.2852 139.21 28.8341C139.751 28.383 140.413 28.1574 141.197 28.1574C142.13 28.1574 142.905 28.4871 143.521 29.1464C144.136 29.8057 144.444 30.5084 144.444 31.2545Z" fill="#3B6FB8"/>
</svg>
