<svg width="136" height="40" viewBox="0 0 136 40" fill="none" xmlns="http://www.w3.org/2000/svg">
<path d="M19.7763 35.5326C18.0337 36.8372 16.3438 37.8198 14.7068 38.4806C13.0874 39.1244 11.2655 39.4463 9.24127 39.4463C7.39301 39.4463 5.76479 39.0989 4.3566 38.4043C2.96601 37.6927 1.89226 36.7355 1.13536 35.5326C0.378452 34.3297 0 33.0251 0 31.6189C0 29.7214 0.624886 28.1034 1.87466 26.765C3.12443 25.4265 4.84066 24.5286 7.02336 24.0711C7.48103 23.9695 8.61638 23.7408 10.4294 23.385C12.2425 23.0292 13.7915 22.7073 15.0765 22.4193C16.379 22.1143 17.7872 21.75 19.301 21.3265C19.213 19.4967 18.8258 18.1583 18.1393 17.3112C17.4704 16.4471 16.071 16.0151 13.9411 16.0151C12.1105 16.0151 10.7287 16.2607 9.79574 16.7521C8.88042 17.2434 8.08831 17.9804 7.41942 18.963C6.76813 19.9457 6.30166 20.598 6.02003 20.9199C5.75599 21.2248 5.17511 21.3773 4.27739 21.3773C3.46768 21.3773 2.76358 21.1316 2.1651 20.6403C1.58422 20.1321 1.29378 19.4882 1.29378 18.7089C1.29378 17.4891 1.74264 16.3031 2.64036 15.151C3.53809 13.9989 4.93748 13.0502 6.83854 12.3047C8.7396 11.5593 11.1071 11.1865 13.9411 11.1865C17.1095 11.1865 19.6003 11.5508 21.4133 12.2793C23.2264 12.9909 24.5026 14.126 25.2419 15.6847C25.9988 17.2434 26.3772 19.3104 26.3772 21.8856C26.3772 23.512 26.3684 24.8928 26.3508 26.028C26.3508 27.1631 26.342 28.4253 26.3244 29.8146C26.3244 31.1191 26.5444 32.483 26.9845 33.9061C27.4422 35.3123 27.671 36.2188 27.671 36.6254C27.671 37.3369 27.3189 37.9892 26.6148 38.5822C25.9284 39.1582 25.145 39.4463 24.2649 39.4463C23.5256 39.4463 22.7951 39.1159 22.0734 38.4551C21.3517 37.7774 20.586 36.8033 19.7763 35.5326ZM19.301 25.4943C18.2449 25.867 16.7047 26.2652 14.6804 26.6887C12.6737 27.0953 11.2831 27.4003 10.5086 27.6036C9.73413 27.79 8.99483 28.1712 8.29074 28.7472C7.58664 29.3063 7.23459 30.0941 7.23459 31.1107C7.23459 32.1611 7.64825 33.059 8.47556 33.8045C9.30288 34.533 10.3854 34.8973 11.7232 34.8973C13.149 34.8973 14.4604 34.6008 15.6573 34.0078C16.8719 33.3979 17.7608 32.6185 18.3241 31.6698C18.9754 30.6193 19.301 28.8912 19.301 26.4854V25.4943Z" fill="white"/>
<path d="M32.3809 35.1266V4.31927C32.3809 2.89686 32.6914 1.82138 33.3125 1.09283C33.9508 0.364276 34.8048 0 35.8745 0C36.9442 0 37.8068 0.364276 38.4624 1.09283C39.118 1.80403 39.4458 2.87952 39.4458 4.31927V35.1266C39.4458 36.5664 39.1094 37.6505 38.4365 38.3791C37.7809 39.0903 36.9269 39.4459 35.8745 39.4459C34.8394 39.4459 33.994 39.0729 33.3384 38.327C32.7 37.5811 32.3809 36.5143 32.3809 35.1266Z" fill="white"/>
<path d="M65.1489 35.3868V34.6843C64.1998 35.7771 63.2593 36.6705 62.3275 37.3643C61.4129 38.0408 60.412 38.5525 59.3248 38.8995C58.2549 39.2638 57.0815 39.4459 55.8045 39.4459C54.1133 39.4459 52.543 39.0903 51.0934 38.3791C49.6611 37.6505 48.4186 36.6184 47.366 35.2827C46.3133 33.9471 45.5109 32.3772 44.9587 30.5732C44.4237 28.7691 44.1562 26.8177 44.1562 24.7187C44.1562 20.278 45.2348 16.8174 47.3919 14.3369C49.5489 11.8563 52.3877 10.616 55.908 10.616C57.9443 10.616 59.6613 10.9716 61.0591 11.6829C62.4569 12.3767 63.8202 13.4522 65.1489 14.9093V4.42335C65.1489 2.96625 65.4337 1.86475 66.0031 1.11885C66.5899 0.372949 67.4182 0 68.4881 0C69.558 0 70.3777 0.34693 70.9472 1.04079C71.5339 1.7173 71.8272 2.7234 71.8272 4.05908V35.3868C71.8272 36.7398 71.5166 37.7546 70.8954 38.4311C70.2741 39.1076 69.4717 39.4459 68.4881 39.4459C67.5217 39.4459 66.7193 39.099 66.0808 38.4051C65.4596 37.6939 65.1489 36.6878 65.1489 35.3868ZM51.2487 24.9529C51.2487 26.8784 51.5421 28.5176 52.1288 29.8706C52.7328 31.2237 53.5525 32.2471 54.5879 32.941C55.6233 33.6175 56.7536 33.9557 57.9788 33.9557C59.2213 33.9557 60.3516 33.6348 61.3697 32.993C62.4051 32.3338 63.2248 31.3364 63.8288 30.0007C64.45 28.6477 64.7607 26.9651 64.7607 24.9529C64.7607 23.0621 64.45 21.4402 63.8288 20.0872C63.2248 18.7168 62.3965 17.6761 61.3438 16.9649C60.3084 16.2363 59.1695 15.872 57.927 15.872C56.6328 15.872 55.4766 16.245 54.4585 16.9909C53.4403 17.7194 52.6465 18.7776 52.077 20.1653C51.5248 21.5357 51.2487 23.1315 51.2487 24.9529Z" fill="white"/>
<path d="M104.797 25.3164C104.797 27.3871 104.468 29.2965 103.809 31.0447C103.15 32.7929 102.197 34.295 100.949 35.551C99.7013 36.807 98.2107 37.7744 96.4775 38.4534C94.7443 39.1153 92.7945 39.4463 90.628 39.4463C88.4788 39.4463 86.5463 39.1068 84.8304 38.4279C83.1146 37.749 81.624 36.7815 80.3588 35.5255C79.1109 34.2526 78.1576 32.759 77.499 31.0447C76.8578 29.3135 76.5371 27.4041 76.5371 25.3164C76.5371 23.2118 76.8664 21.2853 77.525 19.5371C78.1836 17.7889 79.1282 16.2953 80.3588 15.0563C81.5894 13.8173 83.0799 12.8668 84.8304 12.2049C86.581 11.526 88.5135 11.1865 90.628 11.1865C92.7771 11.1865 94.727 11.526 96.4775 12.2049C98.228 12.8838 99.7273 13.8513 100.975 15.1072C102.223 16.3632 103.168 17.8568 103.809 19.5881C104.468 21.3193 104.797 23.2287 104.797 25.3164ZM97.6734 25.3164C97.6734 22.4819 97.0321 20.2755 95.7496 18.697C94.4843 17.1185 92.7771 16.3293 90.628 16.3293C89.2414 16.3293 88.0195 16.6857 86.9623 17.3986C85.905 18.0945 85.0904 19.1298 84.5185 20.5046C83.9465 21.8794 83.6605 23.4833 83.6605 25.3164C83.6605 27.1325 83.9379 28.7194 84.4925 30.0773C85.0644 31.4351 85.8704 32.4789 86.9103 33.2088C87.9675 33.9216 89.2068 34.278 90.628 34.278C92.7771 34.278 94.4843 33.4888 95.7496 31.9103C97.0321 30.3149 97.6734 28.1169 97.6734 25.3164Z" fill="white"/>
<path d="M136 30.892C136 31.7576 135.735 32.6826 135.205 33.667C134.691 34.6514 133.895 35.5934 132.817 36.493C131.756 37.3756 130.412 38.0884 128.787 38.6316C127.161 39.1747 125.329 39.4463 123.293 39.4463C118.963 39.4463 115.583 38.1988 113.152 35.7038C110.722 33.1918 109.507 29.8312 109.507 25.6219C109.507 22.7705 110.063 20.25 111.176 18.0605C112.288 15.871 113.897 14.1822 116.002 12.9941C118.107 11.7891 120.623 11.1865 123.549 11.1865C125.364 11.1865 127.024 11.4496 128.53 11.9758C130.053 12.5019 131.337 13.1808 132.381 14.0125C133.442 14.8442 134.246 15.7352 134.794 16.6857C135.359 17.6192 135.641 18.4933 135.641 19.308C135.641 20.1397 135.324 20.8441 134.691 21.4211C134.075 21.9982 133.322 22.2867 132.432 22.2867C131.85 22.2867 131.362 22.1425 130.969 21.8539C130.592 21.5484 130.164 21.0647 129.685 20.4028C128.829 19.1128 127.931 18.1454 126.989 17.5004C126.065 16.8554 124.884 16.533 123.447 16.533C121.376 16.533 119.707 17.3392 118.441 18.9516C117.174 20.547 116.541 22.7365 116.541 25.5201C116.541 26.827 116.704 28.032 117.029 29.1353C117.354 30.2215 117.825 31.155 118.441 31.9358C119.057 32.6996 119.801 33.2851 120.674 33.6925C121.547 34.0829 122.505 34.278 123.549 34.278C124.953 34.278 126.151 33.9556 127.144 33.3106C128.153 32.6656 129.043 31.6812 129.813 30.3573C130.241 29.5766 130.703 28.9655 131.2 28.5243C131.696 28.083 132.304 27.8623 133.022 27.8623C133.878 27.8623 134.588 28.1848 135.153 28.8298C135.718 29.4747 136 30.1621 136 30.892Z" fill="white"/>
</svg>
